General
Complete name                    : Raising Arizona.mkv
Format                           : Matroska
File size                        : 1.38 GiB
Duration                         : 1h 30mn
Overall bit rate                 : 2 183 Kbps


Video
ID                               : 1
Format                           : AVC

Codec ID                         : V_MPEG4/ISO/AVC
Duration                         : 1h 30mn
Bit rate                         : 1 944 Kbps
Nominal bit rate                 : 1 973 Kbps
Width                            : 706 pixels
Height                           : 544 pixels
Display aspect ratio             : 16/9
Frame rate                       : 25.000 fps
Resolution                       : 24 bits
Colorimetry                      : 4:2:0
Scan type                        : Progressive
Bits/(Pixel*Frame)               : 0.202
Stream size                      : 1.23 GiB (89%)
Writing library                  : x264 core 79


Audio
ID                               : 2
Format                           : AC-3
Format/Info                      : Audio Coding 3
Format profile                   : Dolby Digital
Codec ID                         : A_AC3
Duration                         : 1h 30mn
Bit rate mode                    : Constant
Bit rate                         : 192 Kbps
Channel(s)                       : 2 channels
Channel positions                : L R
Sampling rate                    : 48.0 KHz
Stream size                      : 124 MiB (9%)
Language                         : English

Text #1
Language                         : Danish

Text #2
Language                         : English

Text #3
Language                         : Norwegian

Text #4
Language                         : Swedish
